<svg width="25" height="18" viewBox="0 0 25 18" fill="none" xmlns="http://www.w3.org/2000/svg">
<path d="M16.5719 8.72187L25 14.05V3.16875L16.5719 8.72187Z" fill="white"/>
<path d="M0 3.16875V14.05L8.42813 8.72187L0 3.16875Z" fill="white"/>
<path d="M23.4375 0H1.5625C0.782812 0 0.164062 0.58125 0.046875 1.32969L12.5 9.53438L24.9531 1.32969C24.8359 0.58125 24.2172 0 23.4375 0Z" fill="white"/>
<path d="M15.1406 9.66562L12.9297 11.1219C12.7984 11.2078 12.65 11.25 12.5 11.25C12.35 11.25 12.2016 11.2078 12.0703 11.1219L9.85938 9.66406L0.05 15.8688C0.170313 16.6109 0.785937 17.1875 1.5625 17.1875H23.4375C24.2141 17.1875 24.8297 16.6109 24.95 15.8688L15.1406 9.66562Z" fill="white"/>
</svg>
