<svg width="25" height="20" viewBox="0 0 25 20" fill="none" xmlns="http://www.w3.org/2000/svg">
<g clip-path="url(#clip0_14_46)">
<path d="M22.6432 2.37647H10.136C10.136 2.74629 10.136 3.10517 10.136 3.46405C10.136 4.19275 9.63467 4.72925 8.96386 4.72652C8.29306 4.72379 7.80619 4.19366 7.80258 3.47407C7.80258 2.974 7.79717 2.47211 7.80258 1.97296C7.8009 1.71368 7.85027 1.45666 7.94781 1.21683C8.04536 0.977011 8.18914 0.75918 8.37078 0.576012C8.55242 0.392841 8.76831 0.247992 9.00587 0.149887C9.24344 0.0517845 9.49794 0.00238419 9.75458 0.00456429C13.3836 -0.00181198 19.4019 -0.00181198 23.0354 0.00456429C24.1714 0.00547409 25 0.871714 25 2.05585C25 7.12484 25 9.35465 25 14.4236C25 15.5975 25 16.771 25 17.9442C25 19.1584 24.1642 20 22.9587 20C19.3793 20 13.4016 20 9.82491 20C8.63568 20 7.80348 19.1574 7.79807 17.9569C7.79807 17.4732 7.79807 16.9887 7.79807 16.505C7.80348 15.8073 8.30298 15.2808 8.95845 15.2771C9.61393 15.2735 10.1306 15.8036 10.1306 16.5132C10.1306 16.8775 10.1306 17.2473 10.1306 17.6263H22.6432V2.37647Z" fill="white"/>
<path d="M4.05997 8.68976L16.6709 8.68976C17.4084 8.68976 17.9394 9.20076 17.9286 9.89393C17.9221 10.1876 17.8078 10.4684 17.6078 10.6816C17.4079 10.8949 17.1366 11.0255 16.8467 11.048C16.7565 11.0544 16.6664 11.048 16.5762 11.048L4.00227 11.048C4.09243 11.1391 4.15103 11.2056 4.20964 11.2657C4.93904 12.0026 5.67476 12.7322 6.39425 13.4773C7.02538 14.1322 6.77834 15.1788 5.93263 15.443C5.46379 15.5896 5.05445 15.4621 4.70913 15.1114C3.99866 14.3906 3.28698 13.6713 2.57411 12.9536C1.86123 12.2358 1.14384 11.5119 0.421949 10.782C-0.139757 10.2127 -0.140659 9.5305 0.421949 8.96029C1.85011 7.51504 3.27947 6.07101 4.71004 4.62819C5.37903 3.95688 6.42311 4.18459 6.69359 5.05721C6.83965 5.53086 6.71523 5.94349 6.3672 6.29326C5.64591 7.01649 4.92823 7.74124 4.21415 8.46751C4.15734 8.52398 4.09062 8.57135 4.02841 8.62327L4.05997 8.68976Z" fill="white"/>
</g>
<defs>
<clipPath id="clip0_14_46">
<rect width="25" height="20" fill="white" transform="translate(25 20) rotate(-180)"/>
</clipPath>
</defs>
</svg>
