<svg width="25" height="26" viewBox="0 0 25 26" fill="none" xmlns="http://www.w3.org/2000/svg">
<path d="M4.60301 12.6067H6.27613V14.2798H4.60301V12.6067Z" fill="white"/>
<path d="M0 23.2496C0 24.7348 1.20831 25.9431 2.69356 25.9431H22.3063C23.7917 25.9431 25 24.7348 25 23.2496V8.68428H0V23.2496ZM10.1465 11.1419H21.1296C21.534 11.1419 21.862 11.4698 21.862 11.8743C21.862 12.2787 21.534 12.6067 21.1296 12.6067H10.1465C9.74197 12.6067 9.4141 12.2787 9.4141 11.8743C9.4141 11.4698 9.74197 11.1419 10.1465 11.1419ZM10.1465 14.2799H21.1296C21.534 14.2799 21.862 14.6077 21.862 15.0123C21.862 15.4168 21.534 15.7447 21.1296 15.7447H10.1465C9.74197 15.7447 9.4141 15.4168 9.4141 15.0123C9.4141 14.6077 9.74197 14.2799 10.1465 14.2799ZM3.13816 11.8743C3.13816 11.4698 3.46603 11.1419 3.87058 11.1419H7.00855C7.4131 11.1419 7.74097 11.4698 7.74097 11.8743V15.0123C7.74097 15.4168 7.4131 15.7447 7.00855 15.7447H3.87058C3.46603 15.7447 3.13816 15.4168 3.13816 15.0123V11.8743ZM3.87058 17.4178H21.1296C21.534 17.4178 21.862 17.7457 21.862 18.1503C21.862 18.5548 21.534 18.8827 21.1296 18.8827H3.87058C3.46603 18.8827 3.13816 18.5548 3.13816 18.1503C3.13816 17.7457 3.46584 17.4178 3.87058 17.4178ZM3.87058 20.556H21.1296C21.534 20.556 21.862 20.8839 21.862 21.2884C21.862 21.6928 21.534 22.0208 21.1296 22.0208H3.87058C3.46603 22.0208 3.13816 21.6928 3.13816 21.2884C3.13816 20.8839 3.46584 20.556 3.87058 20.556Z" fill="white"/>
<path d="M22.3063 0.943237H2.69356C1.20831 0.943237 0 2.15154 0 3.6368V7.21918H25V3.6368C25 2.15154 23.7917 0.943237 22.3063 0.943237ZM17.9914 5.54605H7.00836C6.604 5.54605 6.27594 5.21818 6.27594 4.81363C6.27594 4.40908 6.604 4.08121 7.00836 4.08121H17.9914C18.396 4.08121 18.7239 4.40908 18.7239 4.81363C18.7239 5.21818 18.396 5.54605 17.9914 5.54605Z" fill="white"/>
</svg>
