<svg width="25" height="29" viewBox="0 0 25 29" fill="none" xmlns="http://www.w3.org/2000/svg">
<g clip-path="url(#clip0_12_1035)">
<path d="M13.1943 0C13.4187 0.0442757 13.6461 0.076631 13.8665 0.133962C15.0265 0.435945 16.0264 0.978038 16.7432 1.9504C16.7893 2.02033 16.8567 2.07433 16.9358 2.1048C17.9067 2.38407 18.3278 3.122 18.5499 4.00411C18.7883 4.95263 18.7419 5.91478 18.6079 6.87351C18.5499 7.30946 18.449 7.74086 18.3678 8.17511C18.9281 8.30226 19.1102 8.49809 19.0881 9.09638C19.051 10.0914 18.7436 11.0207 18.268 11.8965C18.2153 11.9942 18.141 12.1117 18.0471 12.152C17.7408 12.282 17.7281 12.5527 17.6469 12.8093C17.0361 14.7393 15.8837 16.2338 13.9024 16.9485C12.1108 17.595 10.5437 17.0422 9.19637 15.8297C8.22013 14.9586 7.54784 13.8097 7.27427 12.5448C7.24817 12.4312 7.12637 12.333 7.04227 12.2348C6.9373 12.1134 6.79288 12.0152 6.71922 11.8789C6.24072 10.9951 5.92173 10.0625 5.90723 9.05097C5.89737 8.49071 6.09283 8.28012 6.6299 8.18816C6.5429 7.74767 6.43908 7.31003 6.37006 6.8667C6.08007 4.98896 6.70878 3.40923 8.04508 2.08039C8.95567 1.17217 9.99096 0.449568 11.2809 0.14418C11.5314 0.0874161 11.7866 0.0488168 12.0401 0.00170291L13.1943 0Z" fill="white"/>
<path d="M10.7908 24.6678C11.0309 24.0042 11.2426 23.3288 11.5204 22.6811C11.7524 22.143 11.8174 21.6906 11.3887 21.1905C11.1335 20.8936 10.9891 20.4786 10.8807 20.0938C10.6185 19.1646 11.0054 18.5674 11.9774 18.4323C12.4055 18.3781 12.8399 18.3993 13.2604 18.4948C14.0277 18.665 14.3705 19.2242 14.1507 19.9706C14.0027 20.4668 13.7821 20.9394 13.4959 21.3738C13.261 21.7291 13.2175 22.0147 13.3799 22.4024C13.6565 23.0642 13.8757 23.7494 14.1205 24.4243C14.1512 24.5089 14.1895 24.5912 14.2585 24.7569C15.1651 21.9613 16.0449 19.2463 16.9317 16.5109C17.0106 16.5495 17.0715 16.5727 17.1254 16.6062C18.7407 17.6206 20.4488 18.4488 22.3112 18.9188C24.1207 19.3757 24.7349 20.511 24.9403 22.0975C25.109 23.3952 24.8852 24.6769 24.717 25.9575C24.7025 26.0642 24.5638 26.1845 24.4525 26.2453C23.0669 27.0036 21.5972 27.5628 20.073 27.9862C16.8575 28.8785 13.5834 29.168 10.2525 28.9115C7.50395 28.6986 4.84352 28.1276 2.30025 27.0763C1.68024 26.8203 1.08227 26.5087 0.483137 26.2101C0.400198 26.1681 0.29696 26.0761 0.29 25.9978C0.110202 24.5662 -0.150795 23.1346 0.118902 21.6888C0.2929 20.7534 0.655395 19.8997 1.53408 19.3876C1.89194 19.1788 2.30431 19.0437 2.70799 18.929C4.52231 18.4075 6.25016 17.6322 7.83802 16.6272C7.88674 16.5966 7.93546 16.5665 7.98592 16.5387C8.01395 16.5312 8.04274 16.5268 8.07176 16.5256C8.95258 19.2378 9.83455 21.953 10.7177 24.6712L10.7908 24.6678Z" fill="white"/>
</g>
<defs>
<clipPath id="clip0_12_1035">
<rect width="25" height="29" fill="white"/>
</clipPath>
</defs>
</svg>
