<svg width="25" height="22" viewBox="0 0 25 22" fill="none" xmlns="http://www.w3.org/2000/svg">
<path d="M18.6758 3.52019V5.42993H16.6789V3.52019C16.6789 3.32879 16.6423 3.13927 16.5712 2.96252C16.5001 2.78576 16.3959 2.62524 16.2645 2.49018C16.1332 2.35511 15.9773 2.24816 15.8058 2.17545C15.6343 2.10275 15.4506 2.06573 15.2653 2.06651H9.72901C9.3556 2.06651 8.99748 2.21966 8.73345 2.49228C8.46941 2.7649 8.32107 3.13465 8.32107 3.52019V5.42993H6.31845V3.52019C6.31967 2.58676 6.67942 1.69193 7.31879 1.03201C7.95817 0.372084 8.82495 0.00094265 9.72901 0L15.2653 0C16.1693 0.00094265 17.0361 0.372084 17.6755 1.03201C18.3148 1.69193 18.6746 2.58676 18.6758 3.52019Z" fill="white"/>
<path d="M25 8.97741V19.8551C25 20.1369 24.9462 20.4159 24.8418 20.6762C24.7373 20.9365 24.5842 21.173 24.3911 21.3722C24.1981 21.5714 23.969 21.7293 23.7168 21.837C23.4646 21.9448 23.1944 22.0001 22.9215 22H2.07739C1.80454 22.0001 1.53434 21.9448 1.28223 21.837C1.03012 21.7293 0.80105 21.5713 0.608117 21.3721C0.415183 21.1729 0.262169 20.9364 0.157824 20.6761C0.0534792 20.4158 -0.000150886 20.1368 3.18841e-07 19.8551V8.97741C3.18841e-07 8.40855 0.218868 7.86299 0.608454 7.46074C0.99804 7.0585 1.52643 6.83252 2.07739 6.83252H22.9215C23.4725 6.83252 24.001 7.05846 24.3908 7.46067C24.7806 7.86288 24.9997 8.40844 25 8.97741Z" fill="white"/>
</svg>
