<svg width="155" height="112" viewBox="0 0 155 112" fill="none" xmlns="http://www.w3.org/2000/svg">
<path d="M8.96076 100.262H33.2358V94.0158H16.6266V67.1382H8.96076V100.262ZM53.0058 100.83C63.4162 100.83 71.1293 93.5899 71.1293 83.7001C71.1293 73.8102 63.4162 66.5703 53.0058 66.5703C42.5482 66.5703 34.8824 73.8576 34.8824 83.7001C34.8824 93.5426 42.5482 100.83 53.0058 100.83ZM53.0058 94.2997C47.0908 94.2997 42.6428 89.9936 42.6428 83.7001C42.6428 77.4065 47.0908 73.1004 53.0058 73.1004C58.9208 73.1004 63.3688 77.4065 63.3688 83.7001C63.3688 89.9936 58.9208 94.2997 53.0058 94.2997ZM99.2727 92.8801C97.3326 93.9211 95.3925 94.2997 93.3104 94.2997C86.9695 94.2997 82.5688 89.8989 82.5688 83.7001C82.5688 77.4065 86.9695 73.1004 93.405 73.1004C96.7647 73.1004 99.5566 74.2834 101.97 76.8387L106.891 72.296C103.673 68.5577 98.8468 66.5703 93.0265 66.5703C82.4742 66.5703 74.8084 73.7156 74.8084 83.7001C74.8084 93.6845 82.4742 100.83 92.8845 100.83C97.6165 100.83 102.632 99.3629 106.276 96.6183V83.1795H99.2727V92.8801ZM129.438 100.83C139.849 100.83 147.562 93.5899 147.562 83.7001C147.562 73.8102 139.849 66.5703 129.438 66.5703C118.981 66.5703 111.315 73.8576 111.315 83.7001C111.315 93.5426 118.981 100.83 129.438 100.83ZM129.438 94.2997C123.523 94.2997 119.075 89.9936 119.075 83.7001C119.075 77.4065 123.523 73.1004 129.438 73.1004C135.353 73.1004 139.801 77.4065 139.801 83.7001C139.801 89.9936 135.353 94.2997 129.438 94.2997Z" fill="white"/>
<g clip-path="url(#clip0_11_846)">
<path d="M55.5985 7.73108L58.7876 10.5731C54.8625 15.5661 53.4528 21.135 54.9614 27.3056C55.9602 31.4448 58.4063 35.0752 61.845 37.522C68.9226 42.7231 78.7281 41.9801 84.8757 35.8911C90.8366 29.9768 93.0335 19.7678 85.9742 10.5731L89.0242 7.83139C95.6991 13.5823 96.4094 24.8611 90.7853 35.9208C94.1466 38.8223 97.5664 41.7051 100.909 44.6735C103.773 47.2108 103.637 51.1413 100.697 53.2812C98.5001 54.8898 95.6075 54.5072 93.645 52.2224C90.6792 48.7712 87.7866 45.2604 84.7769 41.6754C78.9697 45.3905 72.7525 46.4307 66.1948 44.5657C61.3187 43.2035 57.0653 40.1547 54.1705 35.9468C51.2242 31.7747 49.761 26.7113 50.0204 21.5855C50.2798 16.4597 52.2464 11.5751 55.5985 7.73108Z" fill="white"/>
<path d="M87.3252 22.881C84.1653 26.0537 81.4925 28.7805 78.7573 31.4256C78.4424 31.734 77.6882 31.9606 77.344 31.7971C74.1915 30.2591 71.0975 30.7235 67.9413 31.7897C67.6364 31.873 67.3169 31.8858 67.0064 31.8273C66.6959 31.7688 66.4023 31.6404 66.1472 31.4516C63.434 28.7768 60.8051 26.0054 58.015 23.1262C60.8661 20.7404 64.2678 19.1284 67.901 18.4415C68.3184 18.3635 68.9299 18.8131 69.3034 19.1548C70.3432 20.1579 71.3062 21.2464 72.3717 22.3758C73.0527 21.6328 73.7704 21.0458 74.2207 20.3028C75.451 18.2669 77.0877 18.0738 79.0539 18.9914C81.6755 20.2136 84.2825 21.447 87.3252 22.881Z" fill="#459CFF"/>
<path d="M80.0682 7.84629C80.062 8.87227 79.8566 9.88696 79.4638 10.8324C79.0711 11.7779 78.4987 12.6356 77.7792 13.3566C77.0598 14.0776 76.2074 14.6477 75.2708 15.0345C74.3342 15.4213 73.3317 15.6171 72.3205 15.6107C71.3093 15.6044 70.3092 15.396 69.3774 14.9975C68.4456 14.5991 67.6002 14.0182 66.8896 13.2883C66.179 12.5583 65.6171 11.6935 65.2359 10.7432C64.8547 9.79286 64.6617 8.77568 64.668 7.7497C64.6806 5.67763 65.504 3.69552 66.957 2.2394C68.4099 0.783289 70.3735 -0.0275519 72.4157 -0.0147431C74.4579 -0.00193432 76.4114 0.833475 77.8465 2.3077C79.2817 3.78193 80.0808 5.77422 80.0682 7.84629Z" fill="#459CFF"/>
</g>
<defs>
<clipPath id="clip0_11_846">
<rect width="53" height="54.2619" fill="white" transform="translate(50)"/>
</clipPath>
</defs>
</svg>
