<svg width="155" height="112" viewBox="0 0 155 112" fill="none" xmlns="http://www.w3.org/2000/svg">
<path d="M14.8766 100.83C24.3406 100.83 28.9306 96.0978 28.9306 90.5614C28.9306 78.4002 9.67147 82.6117 9.67147 76.5075C9.67147 74.4254 11.4223 72.7219 15.965 72.7219C18.8988 72.7219 22.0692 73.5736 25.145 75.3245L27.511 69.5041C24.4352 67.564 20.1765 66.5703 16.0123 66.5703C6.59569 66.5703 2.053 71.255 2.053 76.886C2.053 89.1891 21.3121 84.9304 21.3121 91.1293C21.3121 93.164 19.4667 94.6782 14.924 94.6782C10.9491 94.6782 6.78497 93.2586 3.9931 91.2239L1.39052 96.9969C4.32434 99.2682 9.62415 100.83 14.8766 100.83ZM34.1687 100.262H41.8345V67.1382H34.1687V100.262ZM65.5476 100.83C71.3206 100.83 76.0999 98.7477 79.223 94.9148L74.3017 90.3721C72.0777 92.9747 69.2858 94.2997 65.9734 94.2997C59.7746 94.2997 55.3738 89.9463 55.3738 83.7001C55.3738 77.4539 59.7746 73.1004 65.9734 73.1004C69.2858 73.1004 72.0777 74.4254 74.3017 76.9807L79.223 72.438C76.0999 68.6524 71.3206 66.5703 65.5949 66.5703C55.2792 66.5703 47.6134 73.7156 47.6134 83.7001C47.6134 93.6845 55.2792 100.83 65.5476 100.83ZM99.7479 100.83C110.158 100.83 117.871 93.5899 117.871 83.7001C117.871 73.8102 110.158 66.5703 99.7479 66.5703C89.2902 66.5703 81.6244 73.8576 81.6244 83.7001C81.6244 93.5426 89.2902 100.83 99.7479 100.83ZM99.7479 94.2997C93.8329 94.2997 89.3849 89.9936 89.3849 83.7001C89.3849 77.4065 93.8329 73.1004 99.7479 73.1004C105.663 73.1004 110.111 77.4065 110.111 83.7001C110.111 89.9936 105.663 94.2997 99.7479 94.2997ZM137.97 67.1382H123.633V100.262H131.298V91.1293H137.97C146.819 91.1293 152.356 86.5392 152.356 79.1574C152.356 71.7282 146.819 67.1382 137.97 67.1382ZM137.545 84.8831H131.298V73.3844H137.545C142.229 73.3844 144.595 75.5137 144.595 79.1574C144.595 82.7537 142.229 84.8831 137.545 84.8831Z" fill="white"/>
<g clip-path="url(#clip0_392_456)">
<path d="M56.5984 7.73108L59.7875 10.5731C55.8624 15.5661 54.4527 21.135 55.9613 27.3056C56.9601 31.4448 59.4062 35.0752 62.8449 37.522C69.9225 42.7231 79.728 41.9801 85.8756 35.8911C91.8365 29.9768 94.0334 19.7678 86.974 10.5731L90.0241 7.83139C96.699 13.5823 97.4093 24.8611 91.7852 35.9208C95.1465 38.8223 98.5663 41.7051 101.909 44.6735C104.773 47.2108 104.637 51.1413 101.697 53.2812C99.5 54.8898 96.6074 54.5072 94.6449 52.2224C91.6791 48.7712 88.7865 45.2604 85.7767 41.6754C79.9696 45.3905 73.7524 46.4307 67.1947 44.5657C62.3186 43.2035 58.0651 40.1547 55.1704 35.9468C52.224 31.7747 50.7608 26.7113 51.0203 21.5855C51.2797 16.4597 53.2463 11.5751 56.5984 7.73108Z" fill="white"/>
<path d="M88.3252 22.881C85.1653 26.0537 82.4925 28.7805 79.7573 31.4256C79.4424 31.734 78.6882 31.9606 78.344 31.7971C75.1915 30.2591 72.0975 30.7235 68.9413 31.7897C68.6364 31.873 68.3169 31.8858 68.0064 31.8273C67.6959 31.7688 67.4023 31.6404 67.1472 31.4516C64.434 28.7768 61.8051 26.0054 59.015 23.1262C61.8661 20.7404 65.2678 19.1284 68.901 18.4415C69.3184 18.3635 69.9299 18.8131 70.3034 19.1548C71.3432 20.1579 72.3062 21.2464 73.3717 22.3758C74.0527 21.6328 74.7704 21.0458 75.2207 20.3028C76.451 18.2669 78.0877 18.0738 80.0539 18.9914C82.6755 20.2136 85.2825 21.447 88.3252 22.881Z" fill="#459CFF"/>
<path d="M81.0681 7.84629C81.0618 8.87227 80.8565 9.88696 80.4637 10.8324C80.071 11.7779 79.4986 12.6356 78.7791 13.3566C78.0597 14.0776 77.2073 14.6477 76.2707 15.0345C75.3341 15.4213 74.3316 15.6171 73.3204 15.6107C72.3092 15.6044 71.3091 15.396 70.3773 14.9975C69.4455 14.5991 68.6001 14.0182 67.8895 13.2883C67.1789 12.5583 66.617 11.6935 66.2358 10.7432C65.8546 9.79286 65.6616 8.77568 65.6679 7.7497C65.6805 5.67763 66.5039 3.69552 67.9569 2.2394C69.4098 0.783289 71.3734 -0.0275519 73.4156 -0.0147431C75.4578 -0.00193432 77.4113 0.833475 78.8464 2.3077C80.2816 3.78193 81.0807 5.77422 81.0681 7.84629Z" fill="#459CFF"/>
</g>
<defs>
<clipPath id="clip0_392_456">
<rect width="53" height="54.2619" fill="white" transform="translate(51)"/>
</clipPath>
</defs>
</svg>
